<mxfile host="app.diagrams.net" modified="2023-01-20T21:15:07.963Z" agent="5.0 (Windows NT 10.0; Win64; x64) AppleWebKit/537.36 (KHTML, like Gecko) Chrome/106.0.0.0 YaBrowser/22.11.5.715 Yowser/2.5 Safari/537.36" version="20.8.5" etag="G0ovW-EDei9E-p8byI5b" type="github">
  <diagram id="k9C00mr_UZcgsTcRLkTQ" name="Страница 1">
    <mxGraphModel dx="1002" dy="545" grid="1" gridSize="10" guides="1" tooltips="1" connect="1" arrows="1" fold="1" page="1" pageScale="1" pageWidth="827" pageHeight="1169" math="0" shadow="0">
      <root>
        <mxCell id="0" />
        <mxCell id="1" parent="0" />
        <mxCell id="s41R-FouC1eHWV2C0yNz-41" value="Сисадмин" style="shape=umlActor;verticalLabelPosition=bottom;verticalAlign=top;html=1;outlineConnect=0;" vertex="1" parent="1">
          <mxGeometry x="715" y="190" width="30" height="60" as="geometry" />
        </mxCell>
        <mxCell id="s41R-FouC1eHWV2C0yNz-42" value="Дизайнер" style="shape=umlActor;verticalLabelPosition=bottom;verticalAlign=top;html=1;outlineConnect=0;" vertex="1" parent="1">
          <mxGeometry x="510" y="470" width="30" height="60" as="geometry" />
        </mxCell>
        <mxCell id="s41R-FouC1eHWV2C0yNz-43" value="Программист" style="shape=umlActor;verticalLabelPosition=bottom;verticalAlign=top;html=1;outlineConnect=0;" vertex="1" parent="1">
          <mxGeometry x="1000" y="150" width="30" height="60" as="geometry" />
        </mxCell>
        <mxCell id="s41R-FouC1eHWV2C0yNz-44" value="Тимлид" style="shape=umlActor;verticalLabelPosition=bottom;verticalAlign=top;html=1;outlineConnect=0;" vertex="1" parent="1">
          <mxGeometry x="820" y="410" width="30" height="60" as="geometry" />
        </mxCell>
        <mxCell id="s41R-FouC1eHWV2C0yNz-45" value="" style="endArrow=none;html=1;rounded=0;exitX=1;exitY=0.3333333333333333;exitDx=0;exitDy=0;exitPerimeter=0;startArrow=none;" edge="1" parent="1" source="s41R-FouC1eHWV2C0yNz-69">
          <mxGeometry width="50" height="50" relative="1" as="geometry">
            <mxPoint x="460" y="240" as="sourcePoint" />
            <mxPoint x="510" y="190" as="targetPoint" />
          </mxGeometry>
        </mxCell>
        <mxCell id="s41R-FouC1eHWV2C0yNz-46" value="установка и поддержка работы операционных систем" style="ellipse;whiteSpace=wrap;html=1;" vertex="1" parent="1">
          <mxGeometry x="470" y="270" width="120" height="80" as="geometry" />
        </mxCell>
        <mxCell id="s41R-FouC1eHWV2C0yNz-47" value="резервное копирование данных" style="ellipse;whiteSpace=wrap;html=1;" vertex="1" parent="1">
          <mxGeometry x="640" y="60" width="120" height="80" as="geometry" />
        </mxCell>
        <mxCell id="s41R-FouC1eHWV2C0yNz-48" value="" style="endArrow=none;html=1;rounded=0;exitX=0;exitY=1;exitDx=0;exitDy=0;exitPerimeter=0;entryX=0.99;entryY=0.283;entryDx=0;entryDy=0;entryPerimeter=0;" edge="1" parent="1" source="s41R-FouC1eHWV2C0yNz-41" target="s41R-FouC1eHWV2C0yNz-46">
          <mxGeometry width="50" height="50" relative="1" as="geometry">
            <mxPoint x="470" y="310" as="sourcePoint" />
            <mxPoint x="520" y="260" as="targetPoint" />
          </mxGeometry>
        </mxCell>
        <mxCell id="s41R-FouC1eHWV2C0yNz-49" value="" style="endArrow=none;html=1;rounded=0;exitX=0.5;exitY=1;exitDx=0;exitDy=0;" edge="1" parent="1" source="s41R-FouC1eHWV2C0yNz-47">
          <mxGeometry width="50" height="50" relative="1" as="geometry">
            <mxPoint x="690" y="130" as="sourcePoint" />
            <mxPoint x="710" y="210" as="targetPoint" />
          </mxGeometry>
        </mxCell>
        <mxCell id="s41R-FouC1eHWV2C0yNz-50" value="Разработка ПО" style="ellipse;whiteSpace=wrap;html=1;" vertex="1" parent="1">
          <mxGeometry x="830" y="140" width="120" height="80" as="geometry" />
        </mxCell>
        <mxCell id="s41R-FouC1eHWV2C0yNz-51" value="Адаптация программ" style="ellipse;whiteSpace=wrap;html=1;" vertex="1" parent="1">
          <mxGeometry x="1010" y="260" width="120" height="80" as="geometry" />
        </mxCell>
        <mxCell id="s41R-FouC1eHWV2C0yNz-52" value="Рисует макеты" style="ellipse;whiteSpace=wrap;html=1;" vertex="1" parent="1">
          <mxGeometry x="380" y="410" width="120" height="80" as="geometry" />
        </mxCell>
        <mxCell id="s41R-FouC1eHWV2C0yNz-53" value="Проектирует интерфейс" style="ellipse;whiteSpace=wrap;html=1;" vertex="1" parent="1">
          <mxGeometry x="370" y="530" width="120" height="80" as="geometry" />
        </mxCell>
        <mxCell id="s41R-FouC1eHWV2C0yNz-54" value="" style="endArrow=none;html=1;rounded=0;" edge="1" parent="1" target="s41R-FouC1eHWV2C0yNz-52">
          <mxGeometry width="50" height="50" relative="1" as="geometry">
            <mxPoint x="510" y="490" as="sourcePoint" />
            <mxPoint x="500" y="490" as="targetPoint" />
          </mxGeometry>
        </mxCell>
        <mxCell id="s41R-FouC1eHWV2C0yNz-55" value="" style="endArrow=none;html=1;rounded=0;entryX=0;entryY=1;entryDx=0;entryDy=0;entryPerimeter=0;" edge="1" parent="1" source="s41R-FouC1eHWV2C0yNz-53" target="s41R-FouC1eHWV2C0yNz-42">
          <mxGeometry width="50" height="50" relative="1" as="geometry">
            <mxPoint x="460" y="600" as="sourcePoint" />
            <mxPoint x="510" y="550" as="targetPoint" />
          </mxGeometry>
        </mxCell>
        <mxCell id="s41R-FouC1eHWV2C0yNz-56" value="Распределяет нагрузку между участниками команды" style="ellipse;whiteSpace=wrap;html=1;" vertex="1" parent="1">
          <mxGeometry x="890" y="450" width="120" height="80" as="geometry" />
        </mxCell>
        <mxCell id="s41R-FouC1eHWV2C0yNz-57" value="Общается с клиентами" style="ellipse;whiteSpace=wrap;html=1;" vertex="1" parent="1">
          <mxGeometry x="625" y="340" width="120" height="80" as="geometry" />
        </mxCell>
        <mxCell id="s41R-FouC1eHWV2C0yNz-58" value="Ставит срок выполнения" style="ellipse;whiteSpace=wrap;html=1;" vertex="1" parent="1">
          <mxGeometry x="700" y="520" width="120" height="80" as="geometry" />
        </mxCell>
        <mxCell id="s41R-FouC1eHWV2C0yNz-59" value="Оценивает задачи" style="ellipse;whiteSpace=wrap;html=1;" vertex="1" parent="1">
          <mxGeometry x="940" y="350" width="120" height="80" as="geometry" />
        </mxCell>
        <mxCell id="s41R-FouC1eHWV2C0yNz-60" value="" style="endArrow=none;html=1;rounded=0;exitX=1;exitY=0.3333333333333333;exitDx=0;exitDy=0;exitPerimeter=0;" edge="1" parent="1" source="s41R-FouC1eHWV2C0yNz-44" target="s41R-FouC1eHWV2C0yNz-59">
          <mxGeometry width="50" height="50" relative="1" as="geometry">
            <mxPoint x="1030" y="520" as="sourcePoint" />
            <mxPoint x="1080" y="470" as="targetPoint" />
          </mxGeometry>
        </mxCell>
        <mxCell id="s41R-FouC1eHWV2C0yNz-61" value="" style="endArrow=none;html=1;rounded=0;exitX=0;exitY=0.3333333333333333;exitDx=0;exitDy=0;exitPerimeter=0;" edge="1" parent="1" source="s41R-FouC1eHWV2C0yNz-44" target="s41R-FouC1eHWV2C0yNz-57">
          <mxGeometry width="50" height="50" relative="1" as="geometry">
            <mxPoint x="910" y="500" as="sourcePoint" />
            <mxPoint x="960" y="450" as="targetPoint" />
          </mxGeometry>
        </mxCell>
        <mxCell id="s41R-FouC1eHWV2C0yNz-62" value="" style="endArrow=none;html=1;rounded=0;exitX=0.78;exitY=0.082;exitDx=0;exitDy=0;exitPerimeter=0;" edge="1" parent="1" source="s41R-FouC1eHWV2C0yNz-58" target="s41R-FouC1eHWV2C0yNz-44">
          <mxGeometry width="50" height="50" relative="1" as="geometry">
            <mxPoint x="940" y="600" as="sourcePoint" />
            <mxPoint x="990" y="550" as="targetPoint" />
          </mxGeometry>
        </mxCell>
        <mxCell id="s41R-FouC1eHWV2C0yNz-63" value="" style="endArrow=none;html=1;rounded=0;entryX=1;entryY=0.3333333333333333;entryDx=0;entryDy=0;entryPerimeter=0;exitX=0.5;exitY=0;exitDx=0;exitDy=0;" edge="1" parent="1" source="s41R-FouC1eHWV2C0yNz-56" target="s41R-FouC1eHWV2C0yNz-44">
          <mxGeometry width="50" height="50" relative="1" as="geometry">
            <mxPoint x="1040" y="580" as="sourcePoint" />
            <mxPoint x="1070" y="530" as="targetPoint" />
          </mxGeometry>
        </mxCell>
        <mxCell id="s41R-FouC1eHWV2C0yNz-64" value="" style="endArrow=none;html=1;rounded=0;exitX=1;exitY=0.5;exitDx=0;exitDy=0;" edge="1" parent="1" source="s41R-FouC1eHWV2C0yNz-50">
          <mxGeometry width="50" height="50" relative="1" as="geometry">
            <mxPoint x="950" y="220" as="sourcePoint" />
            <mxPoint x="1000" y="170" as="targetPoint" />
          </mxGeometry>
        </mxCell>
        <mxCell id="s41R-FouC1eHWV2C0yNz-65" value="" style="endArrow=none;html=1;rounded=0;entryX=1;entryY=0.3333333333333333;entryDx=0;entryDy=0;entryPerimeter=0;" edge="1" parent="1" target="s41R-FouC1eHWV2C0yNz-43">
          <mxGeometry width="50" height="50" relative="1" as="geometry">
            <mxPoint x="1080" y="260" as="sourcePoint" />
            <mxPoint x="1130" y="210" as="targetPoint" />
          </mxGeometry>
        </mxCell>
        <mxCell id="s41R-FouC1eHWV2C0yNz-66" value="" style="endArrow=block;html=1;rounded=0;entryX=0;entryY=1;entryDx=0;entryDy=0;entryPerimeter=0;endFill=0;" edge="1" parent="1" target="s41R-FouC1eHWV2C0yNz-43">
          <mxGeometry width="50" height="50" relative="1" as="geometry">
            <mxPoint x="850" y="430" as="sourcePoint" />
            <mxPoint x="730" y="330" as="targetPoint" />
          </mxGeometry>
        </mxCell>
        <mxCell id="s41R-FouC1eHWV2C0yNz-67" value="" style="endArrow=block;html=1;rounded=0;entryX=1;entryY=0.3333333333333333;entryDx=0;entryDy=0;entryPerimeter=0;endFill=0;" edge="1" parent="1" target="s41R-FouC1eHWV2C0yNz-42">
          <mxGeometry width="50" height="50" relative="1" as="geometry">
            <mxPoint x="820" y="430" as="sourcePoint" />
            <mxPoint x="810" y="440" as="targetPoint" />
          </mxGeometry>
        </mxCell>
        <mxCell id="s41R-FouC1eHWV2C0yNz-68" value="" style="endArrow=none;html=1;rounded=0;exitX=1;exitY=0.3333333333333333;exitDx=0;exitDy=0;exitPerimeter=0;" edge="1" parent="1" source="s41R-FouC1eHWV2C0yNz-41" target="s41R-FouC1eHWV2C0yNz-69">
          <mxGeometry width="50" height="50" relative="1" as="geometry">
            <mxPoint x="745" y="210" as="sourcePoint" />
            <mxPoint x="510" y="190" as="targetPoint" />
          </mxGeometry>
        </mxCell>
        <mxCell id="s41R-FouC1eHWV2C0yNz-69" value="установка и обслуживание компьютеров" style="ellipse;whiteSpace=wrap;html=1;" vertex="1" parent="1">
          <mxGeometry x="400" y="170" width="120" height="80" as="geometry" />
        </mxCell>
        <mxCell id="s41R-FouC1eHWV2C0yNz-70" value="" style="endArrow=block;html=1;rounded=0;entryX=1;entryY=1;entryDx=0;entryDy=0;entryPerimeter=0;exitX=0;exitY=0.3333333333333333;exitDx=0;exitDy=0;exitPerimeter=0;endFill=0;" edge="1" parent="1" source="s41R-FouC1eHWV2C0yNz-44" target="s41R-FouC1eHWV2C0yNz-41">
          <mxGeometry width="50" height="50" relative="1" as="geometry">
            <mxPoint x="820" y="340" as="sourcePoint" />
            <mxPoint x="870" y="290" as="targetPoint" />
          </mxGeometry>
        </mxCell>
      </root>
    </mxGraphModel>
  </diagram>
</mxfile>
